# xmcd CD database file
#
# Track frame offsets:
#	150
#	17145
#	28339
#	43121
#	57215
#	74173
#	84817
#	97749
#	112956
#	126462
#	142881
#	155300
#
# Disc length: 2278 seconds
#
# Revision: 2
# Processed by: cddbd v1.5.2PL0 Copyright (c) Steve Scherf et al.
# Submitted via: CDex 1.50Beta7
#
DISCID=9c08e40c
DTITLE=Olivia Newton - John - If Not For You
DYEAR=1993
DGENRE=Country
TTITLE0=Me And Bobby McGee
TTITLE1=If
TTITLE2=Banks Of Ohio
TTITLE3=In A Station
TTITLE4=Love Song
TTITLE5=Help Me Make It Through The Night
TTITLE6=If Not For You
TTITLE7=Where Are You Going To My Love
TTITLE8=Lullaby
TTITLE9=If You Could Read My Mind
TTITLE10=If I Gotta Leave
TTITLE11=No Regrets
EXTD=YEAR: 1993
EXTT0=
EXTT1=
EXTT2=
EXTT3=
EXTT4=
EXTT5=
EXTT6=
EXTT7=
EXTT8=
EXTT9=
EXTT10=
EXTT11=
PLAYORDER=
